<?xml version="1.0" encoding="iso-8859-1"?>
<!-- Uploaded to: SVG Repo, www.svgrepo.com, Generator: SVG Repo Mixer Tools -->
<svg height="800px" width="800px" version="1.1" id="Layer_1" xmlns="http://www.w3.org/2000/svg" xmlns:xlink="http://www.w3.org/1999/xlink" 
	 viewBox="0 0 512.001 512.001" xml:space="preserve">
<circle style="fill:#F4B2B0;" cx="235.632" cy="235.661" r="143.558"/>
<g>
	<path style="fill:#B3404A;" d="M235.636,394.862c-42.522,0-82.5-16.558-112.568-46.627c-62.07-62.07-62.07-163.066,0-225.136
		c30.068-30.068,70.045-46.627,112.568-46.627s82.5,16.558,112.569,46.627c62.068,62.071,62.068,163.066,0,225.136
		C318.136,378.303,278.159,394.862,235.636,394.862z M235.636,107.752c-34.168,0-66.289,13.305-90.448,37.465
		c-49.875,49.875-49.875,131.026,0,180.9c24.159,24.16,56.28,37.465,90.448,37.465s66.291-13.305,90.45-37.465
		c49.874-49.874,49.874-131.024,0-180.9C301.927,121.057,269.805,107.752,235.636,107.752z"/>
	<path style="fill:#B3404A;" d="M496.331,389.993c-8.636,0-15.64,7.002-15.64,15.64v52.967l-67.688-67.688
		c37.731-42.985,58.351-97.529,58.351-155.247c0-62.961-24.519-122.155-69.041-166.675c-6.109-6.107-16.009-6.107-22.119,0
		c-6.107,6.107-6.107,16.011,0,22.118c38.613,38.612,59.879,89.951,59.879,144.558c0,54.608-21.265,105.946-59.879,144.558
		c-79.707,79.708-209.405,79.712-289.113,0c-79.71-79.71-79.71-209.407,0-289.117c51.572-51.569,127.418-71.812,197.919-52.827
		c8.349,2.244,16.922-2.696,19.17-11.035c2.246-8.341-2.696-16.922-11.035-19.168C215.85-13.807,128.42,9.529,68.961,68.992
		c-91.904,91.904-91.904,241.446,0,333.352c44.52,44.52,103.712,69.039,166.675,69.039c57.72,0,112.261-20.62,155.246-58.349
		l67.688,67.688h-52.967c-8.636,0-15.64,7.002-15.64,15.64c0,8.638,7.004,15.64,15.64,15.64h90.727c8.636,0,15.64-7.002,15.64-15.64
		v-90.725C511.97,396.995,504.967,389.993,496.331,389.993z"/>
</g>
</svg>