<svg xmlns="http://www.w3.org/2000/svg" xmlns:xlink="http://www.w3.org/1999/xlink" version="1.1" x="0px" y="0px" viewBox="0 0 100 125" enable-background="new 0 0 100 100" xml:space="preserve"><g><path fill="#000000" d="M98.137,79.776c-0.719-1.773-5.174-2.148-7.902-0.389c-8.941,5.766-11.678,4.689-15.549,1.167   c-5.766-5.248-3.848-9.736-3.368-14.122c0.905-8.294-2.138-25.784-16.843-36.796c-5.933-4.443-11.403-4.794-17.611-11.076   c0.442-1.881,0.995-4.689-0.27-5.638c-1.814-1.361-4.989-0.584-5.705,0.197c-3.627-1.813-5.373-1.743-5.589-2.363   c-0.805-2.323-2.867-5.273-3.406-5.273c-0.628,0-2.094,1.257-2.402,2.905c-0.309,1.651,0.295,3.242-0.038,3.553   c-1.336,1.254-3.332,2.666-4.368,4.479c-1.037,1.814-0.134,4.142-1.296,5.701c-1.138,1.527-3.143,2.35-3.757,3.11   c-0.414,0.512-0.207,1.889,0.432,2.391c0.837,0.658,1.275-0.16,3.112,1.136c1.836,1.296,3.773,0.992,5.138,1.137   c0.706,0.074,0.667,2.221,0,3.368c-1.304,2.239-3.762,1.296-5.557,1c-1.617-0.267-5.086-2.094-7.838-1.615   c-2.278,0.396-4.162,3.156-2.932,3.83C4.901,37.854,5.966,35.881,6.697,36c2.213,0.358,5.372,2.055,3.949,1.974   c-4.188-0.239-7.261,3.832-5.026,4.249c3.53,0.659,3.291-1.257,5.863-0.658c5.653,1.315,10.18,4.224,11.788,4.728   c9.154,2.87,8.917,2.313,12.026,6.46c3.109,4.146,2.539,4.983,1.795,7.479c-0.838,2.812-3.609,9.456-2.573,13.343   c1.036,3.888,2.167,6.787,2.139,8.083c-0.027,1.295,0.499,3.196-1.943,3.691c-8.939,1.814-8.569,3.398-8.436,4.642   c0.079,0.735,4.48,0.695,5.196,0.606c1.164-0.147,4.903-1.713,9.2-3.822c3.586-1.763,2.785-1.037,3.951-3.563   c1.133-2.457,2.655-6.739,3.757-7.904c1.943,10.041,6.658,9.563,6.932,12.568c0.194,2.137-7.969,2.719-8.616,4.793   C45.988,94.948,46.441,95,50.587,95c3.11,0,10.301-4.081,10.364-5.247c0.204-3.659,2.591-10.139,3.758-11.208   c0.373,2.544,3.415,7.709,4.341,8.805c2.955,3.505,5.636,5.253,11.337,5.253s9.315-1.52,11.92-3.238   C95.351,87.355,99.237,82.497,98.137,79.776z M21.148,6.646c0.831-0.57,1.379-0.891,3.051,3.754   c-1.503-0.121-3.199,0.266-4.105,0.765C19.696,7.908,20.597,7.024,21.148,6.646z M15.151,17.874   c0.396-1.438,0.193-1.209,0.573-1.436c0.595-0.356,1.738,0.145,3.229,0.342c0.408,0.054-2.086,2.388-2.449,2.388   c-0.249,0-0.263-0.784-0.696-1.173C15.375,17.605,15.093,18.083,15.151,17.874z M18.707,29.331   c-2.95-0.148-3.563,0.015-6.147-1.827c-1.118-0.58,1.218-1.619-0.549-2.92c0.572-0.433,1.454-1.149,1.999-1.774   c0.11,0.07-1.156,1.539-1,1.774c0.2,0.3,3.551-1.315,3.498-1.05c-0.55,2.779,1.419,4.256,2.145,4.647   c1.465,0.788,3.452,0.802,5.951,0.802C24.354,29.445,19.044,29.348,18.707,29.331z M19.149,22.679l0.111-0.073   c1.182-0.775,2.149-0.555,2.799,0.619l0.051,0.092l-0.049,0.093c-0.284,0.535-0.803,0.867-1.354,0.867   c-0.587,0-1.297-0.386-1.529-1.468L19.149,22.679z M28.812,28.632c-1.924-1.682-3.071-2.962-3.708-4.548   c-0.699-1.741-2.851-3.056-4.487-3.24c-0.999-0.113-2.874,0.241-2.292-0.407c0.583-0.648,2.41-3.882,2.657-2.527   c0.13,0.712-0.436,1.623-0.126,1.875c0.36,0.294,3.43,0.716,4.53,1.169c0.396,0.163,2.808,2.194,3.678,2.779   C30.888,26.451,30.54,30.141,28.812,28.632z M36.206,18.169c-0.862,2.3-2.256,3.315-2.806,2.667   c-0.521-0.616,0.152-0.98,0.354-1.238c1.937-2.481,2.112-4.923,1.61-5.381c-1.419-1.295-5.636,1.621-6.154,1.427   c-0.519-0.195,0.485-0.868,1.046-1.268c1.617-1.154,4.13-2.182,5.892-0.767C36.781,14.117,36.819,16.532,36.206,18.169z    M65.645,78.402c0.52-0.647,3.281-3.527,4.117-5.558c0,2.073,1.012,3.688,1.399,4.211c-1.917,1.101-3.53,3.61-4.185,4.664   C66.394,80.618,65.645,79.869,65.645,78.402z M71.161,88.457c-0.971-0.714-1.982-2.817-2.501-3.66   c0.513-2.728,2.505-4.579,4.412-4.928c1.058,0.749,1.555,1.896,1.749,2.308C73.001,83.404,71.355,87.329,71.161,88.457z    M79.882,91.882c-1.227-0.122-3.909-0.149-4.845-0.883c-0.844-1.765,1.475-7.046,3.121-7.1c1.225,0.562,1.59,0.317,1.899,0.86   C81.194,86.18,81.419,90.41,79.882,91.882z M86.971,91.097c-1.555,0.453-1.229,0.519-2.462,0.453   c0.713-1.101-0.129-6.153-0.776-7.644c0.4-0.52,1.295-0.583,1.942-0.777C87.516,84.587,89.044,88.765,86.971,91.097z M93.343,87.55   c-0.454,0.519-1.359,1.037-2.073,1.426c-0.194-3.046-0.972-5.117-3.304-7.386c0.647-0.388,0.986-0.622,1.555-0.972   C92.177,82.043,93.47,84.61,93.343,87.55z"/><path fill="#000000" d="M20.706,23.89c0.382,0,0.734-0.212,0.958-0.569c-0.518-0.868-1.178-1.004-2.076-0.462   C19.796,23.615,20.294,23.89,20.706,23.89z"/></g><text x="0" y="115" fill="#000000" font-size="5px" font-weight="bold" font-family="'Helvetica Neue', Helvetica, Arial-Unicode, Arial, Sans-serif">Created by Christy Presler</text><text x="0" y="120" fill="#000000" font-size="5px" font-weight="bold" font-family="'Helvetica Neue', Helvetica, Arial-Unicode, Arial, Sans-serif">from the Noun Project</text></svg>