<svg xmlns="http://www.w3.org/2000/svg" viewBox="0 0 512 640" x="0px" y="0px"><title>pet, animal, domestic, raccoon, tanuki, zoo</title><path d="M279.58,285.84c.08.13-.07-.14,0,0Z"/><path d="M508.57,261.89c-.08-29.79-18.2-50.71-46.15-53.3-28-2.59-48.45,12.16-57.6,41.55-.02.07-.04.13-.06.2,0,.01-.01.01-.01.02a109.706,109.706,0,0,0-4.62,34.57c.05,1.47,1.07,28.35.83,43.55-.17,10.91-.7,21.01-1.6,30.01a176.615,176.615,0,0,1-5.51,30.84c-2.75,9.51-6.3,16.87-10.56,21.89a21.925,21.925,0,0,1-11.24,7.51c-2.24.6-19.68,2.35-25.39.98-15.25-3.68-26.47-16.53-30.77-35.26-6.55-28.39-19.992-69.732-36.31-98.61-31.655-56.02-67.65-88.25-103.98-105.85-2.27-1.1-9.87-9.17-14.9-14.5-10.58-11.23-13.13-13.67-16.08-13.97-4.17-.42-7.56.54-10.09,2.83-4.43,4.01-5.02,10.89-5.1,19.03-11.94,2.36-20.07,8.04-25.93,12.88-3.29,2.73-6.39,5.67-9.38,8.51-5.77,5.48-11.21,10.65-18.1,14.6a48.236,48.236,0,0,1-11.65,4.81,8.757,8.757,0,0,0-2.492,1.14,7.041,7.041,0,0,0-4.06-.877,7.06,7.06,0,0,0-1.763,13.685,27.086,27.086,0,0,0,2.385,11.2c3.819,8.654,19.731,30.918,46.768,35.147a2.991,2.991,0,0,1,2.153,4.4A226.39,226.39,0,0,0,94.63,307.31c-1.93,5.11-3.7,10.1-5.26,14.5-2.49,7.02-4.64,13.08-6.53,17.03a20.457,20.457,0,0,1-1.55,2.82,16.815,16.815,0,0,1-6.13,5.16,26.749,26.749,0,0,1-27.01-1.43L31.22,334.55a18.116,18.116,0,0,0-14.97-2.08l-6.39,1.94a8.963,8.963,0,0,0-2.01,16.27l5.87,3.52a114.413,114.413,0,0,0,26.21,26.09c20.564,14.733,43.633,20.4,67.18,16.627a2.009,2.009,0,0,1,2.337,1.926c.578,17.546,6.05,35.115,8.113,41.174a1.949,1.949,0,0,1,0,1.24,69.551,69.551,0,0,0-2.868,33.007,1.993,1.993,0,0,1-1.887,2.309c-48.133,2.381-51.6,25.785-51.728,26.833a4.511,4.511,0,0,0,2.382,4.542,4.746,4.746,0,0,0,2.234.507h81.65c.035,0,.07,0,.107,0h83.04a117.448,117.448,0,0,0,59.83-16.4c7.71-4.57,21.55-6.16,30.22-3.47a124.551,124.551,0,0,0,43.34,5.87A105.07,105.07,0,0,0,398,486.93c13.89-5.62,27.12-14.37,39.32-26.01,1.82-1.74,3.61-3.57,5.38-5.43.09-.1.19-.19.27-.29a198.326,198.326,0,0,0,23.43-30.57c.05-.08.11-.17.16-.26.34-.55.69-1.07,1.03-1.62a272.7,272.7,0,0,0,19.59-38.68c.32-.78,9.2-25.17,10.67-30.3,4.76-16.52,8.567-45.77,9.83-56.75C507.684,296.985,508.6,272.112,508.57,261.89ZM107,236.63c-10.73-8.26-14.47-18.66-22.2-22.16a124.406,124.406,0,0,0,15.52-13.17c3.01-2.87,5.86-5.57,8.92-8.1.88-.73,1.8-1.46,2.76-2.18,13.15,3.4,32.06,13.19,32.17,31.52C144.27,240.79,118.31,245.34,107,236.63ZM437.14,448.26c-12.41,2.17-37.54-9.36-45.42-33.19a56.088,56.088,0,0,0,5.55-9.28c12.95,15.57,36.3,22.86,53.14,22.86.89,0,1.74-.02,2.59-.06A180.941,180.941,0,0,1,437.14,448.26Zm47.25-82.01c-1.36,3.84-2.81,7.65-4.32,11.39-5.46,5.01-20.83,6.81-36.41,4.17-17.65-2.99-30.82-10.47-35.59-20.1.08-.78,1.23-14,1.51-20.37,6.27,5.15,14.37,8.56,19.92,10.47a108.456,108.456,0,0,0,34.39,5.72,72.823,72.823,0,0,0,24.61-3.86C487.25,357.85,485.87,362.08,484.39,366.25ZM498.7,296.4c-.07.96-.16,1.91-.23,2.87-11.74,8.17-32.68,11.22-51.88,7.39-17.43-3.48-30.69-11.69-37.49-23.18a102.113,102.113,0,0,1,2.18-22.47c16.3,15.94,38.24,18.73,51.52,18.73,2.35,0,4.43-.08,6.16-.2,12.11-.81,23.16-3.8,30.59-7.96C499.5,279.36,499.3,287.58,498.7,296.4Z"/><circle cx="105.671" cy="212.084" r="5.544"/><path d="M33.9,309.25l7.45.99,1.37,1.09,28.161,22.425a3,3,0,0,0,4.672-1.277c2.859-7.539,9.13-24.147,11.707-30.92a2.988,2.988,0,0,0-1.775-3.882A260.573,260.573,0,0,0,58.43,289.89q-4.68-1.125-9.81-2.25a15.4,15.4,0,0,0-8.12.96,49.416,49.416,0,0,0-11.17,5.99c-.09.07-.18.14-.26.21a8.156,8.156,0,0,0,4.83,14.45Z"/><text x="0" y="527" fill="#000000" font-size="5px" font-weight="bold" font-family="'Helvetica Neue', Helvetica, Arial-Unicode, Arial, Sans-serif">Created by Victoruler</text><text x="0" y="532" fill="#000000" font-size="5px" font-weight="bold" font-family="'Helvetica Neue', Helvetica, Arial-Unicode, Arial, Sans-serif">from the Noun Project</text></svg>