<?xml version="1.0" standalone="no"?>
<!DOCTYPE svg PUBLIC "-//W3C//DTD SVG 20010904//EN"
 "http://www.w3.org/TR/2001/REC-SVG-20010904/DTD/svg10.dtd">
<svg version="1.0" xmlns="http://www.w3.org/2000/svg"
 width="1280.000000pt" height="1280.000000pt" viewBox="0 0 1280.000000 1280.000000"
 preserveAspectRatio="xMidYMid meet">
<metadata>
Created by potrace 1.15, written by Peter Selinger 2001-2017
</metadata>
<g transform="translate(0.000000,1280.000000) scale(0.100000,-0.100000)"
fill="#000000" stroke="none">
<path d="M2548 11529 l-198 -200 0 -788 c0 -599 3 -790 12 -799 7 -7 23 -12
36 -12 14 0 31 -8 38 -17 12 -17 144 -18 2508 -21 1482 -1 2496 -6 2496 -11 0
-14 59 120 -1884 -4270 -999 -2257 -1816 -4114 -1814 -4125 2 -16 11 -22 41
-24 21 -2 47 -12 58 -23 19 -19 43 -19 964 -19 915 0 947 1 983 19 44 23 364
343 385 386 31 63 3572 8564 3599 8643 l29 83 -4 647 c-2 356 -8 665 -13 687
l-9 40 -3515 2 -3515 1 -197 -199z"/>
</g>
</svg>
