<?xml version="1.0" encoding="iso-8859-1"?>
<!-- Uploaded to: SVG Repo, www.svgrepo.com, Generator: SVG Repo Mixer Tools -->
<svg height="800px" width="800px" version="1.1" id="Layer_1" xmlns="http://www.w3.org/2000/svg" xmlns:xlink="http://www.w3.org/1999/xlink" 
	 viewBox="0 0 512.001 512.001" xml:space="preserve">
<circle style="fill:#F4B2B0;" cx="237.297" cy="237.327" r="144.573"/>
<g>
	<path style="fill:#B3404A;" d="M237.302,397.655c-42.822,0-83.084-16.677-113.365-46.957c-62.509-62.509-62.509-164.217,0-226.726
		c30.282-30.282,70.542-46.957,113.365-46.957s83.084,16.675,113.365,46.957c62.509,62.51,62.509,164.219,0,226.728
		C320.386,380.978,280.126,397.655,237.302,397.655z M237.302,108.514c-34.41,0-66.76,13.399-91.09,37.73
		c-50.227,50.227-50.227,131.951,0,182.179c24.33,24.331,56.68,37.73,91.09,37.73s66.76-13.399,91.09-37.732
		c50.227-50.227,50.227-131.951,0-182.179C304.062,121.914,271.712,108.514,237.302,108.514z"/>
	<path style="fill:#B3404A;" d="M507.356,485.112l-34.75-34.749l32.038-32.038c6.151-6.151,6.151-16.124,0-22.276
		c-6.152-6.151-16.122-6.151-22.276,0l-32.038,32.038l-34.41-34.408c37.998-43.289,58.763-98.218,58.763-156.345
		c0-63.407-24.694-123.019-69.529-167.854c-6.152-6.151-16.122-6.151-22.276,0c-6.151,6.151-6.151,16.124,0,22.274
		c38.886,38.885,60.302,90.587,60.302,145.58s-21.416,106.695-60.302,145.58c-80.271,80.272-210.886,80.274-291.158,0
		c-80.274-80.274-80.274-210.888,0-291.161c51.939-51.935,128.314-72.32,199.32-53.2c8.406,2.259,17.042-2.715,19.305-11.114
		c2.262-8.4-2.715-17.042-11.114-19.304C217.37-13.906,129.328,9.598,69.448,69.48c-92.554,92.556-92.554,243.154,0,335.71
		c44.835,44.835,104.448,69.527,167.854,69.527c58.127,0,113.057-20.765,156.344-58.762l34.41,34.408l-32.038,32.038
		c-6.151,6.151-6.151,16.124,0,22.276c3.076,3.076,7.107,4.613,11.137,4.613c4.032,0,8.061-1.537,11.137-4.613l32.038-32.038
		l34.75,34.749c3.076,3.076,7.107,4.613,11.137,4.613s8.061-1.539,11.137-4.613C513.507,501.236,513.507,491.263,507.356,485.112z"
		/>
</g>
</svg>